<svg class="icon" viewBox="0 0 1675 1024" version="1.1" xmlns="http://www.w3.org/2000/svg" width="1024" height="1024">
    <path
        d="M616.168727 0a506.321455 506.321455 0 0 1-217.832727 156.858182l-42.356364 15.825454A186.181818 186.181818 0 0 0 234.589091 347.042909V601.367273a186.181818 186.181818 0 0 0 111.243636 170.449454l51.386182 22.621091a559.104 559.104 0 0 1 218.763636 171.752727H186.181818a186.181818 186.181818 0 0 1-186.181818-186.181818V186.181818a186.181818 186.181818 0 0 1 186.181818-186.181818h429.986909zM1024 0a506.321455 506.321455 0 0 0 217.832727 156.858182l42.356364 15.825454a186.181818 186.181818 0 0 1 121.297454 174.452364V601.367273a186.181818 186.181818 0 0 1-111.243636 170.449454l-51.479273 22.621091A559.104 559.104 0 0 0 1024 966.190545h429.986909a186.181818 186.181818 0 0 0 186.181818-186.181818V186.181818a186.181818 186.181818 0 0 0-186.181818-186.181818H1024z"
        fill="#FF6B00" p-id="7838"></path>
    <path d="M558.545455 465.454545h558.545454v93.09091H558.545455z" fill="#FF6B00"></path>
</svg>