<svg class="icon" viewBox="0 0 1068 1024" version="1.1" xmlns="http://www.w3.org/2000/svg" width="1068" height="1024"
    xmlns:xlink="http://www.w3.org/1999/xlink">
    <path
        d="M417.391304 601.043478c27.648 0 50.086957 22.438957 50.086957 50.086957v100.173913a50.086957 50.086957 0 0 1-100.173913 0v-100.173913c0-27.648 22.438957-50.086957 50.086956-50.086957zM701.217391 651.130435a50.086957 50.086957 0 0 0-100.173913 0v100.173913a50.086957 50.086957 0 0 0 100.173913 0v-100.173913z"
        p-id="14203"></path>
    <path
        d="M524.955826 118.160696c3.294609 3.561739 6.41113 7.212522 9.305044 10.952347 2.893913-3.739826 6.010435-7.43513 9.305043-10.952347 45.545739-48.795826 116.068174-60.059826 196.563478-51.110957 82.18713 9.126957 143.315478 35.261217 181.960348 84.190609 37.754435 47.816348 46.258087 107.78713 46.258087 165.977043 0 38.199652-3.561739 76.577391-16.962783 110.502957l11.174957 55.963826 4.452174 2.226087a183.652174 183.652174 0 0 1 101.509565 164.285217V734.608696c0 15.983304-5.743304 29.250783-10.418087 37.843478a145.408 145.408 0 0 1-17.274435 24.486956c-12.02087 14.024348-27.024696 27.603478-40.425739 38.733913-13.668174 11.397565-27.158261 21.548522-37.175652 28.761044-15.983304 11.53113-32.367304 22.171826-49.463652 32.01113-20.48 11.798261-49.953391 27.336348-86.550261 42.874435-72.882087 30.898087-175.682783 62.419478-292.953043 62.419478s-220.070957-31.521391-292.953044-62.419478a806.733913 806.733913 0 0 1-86.550261-42.874435c-17.096348-9.839304-33.480348-20.48-49.463652-32.055652-9.97287-7.168-23.507478-17.318957-37.175652-28.716522a345.755826 345.755826 0 0 1-40.425739-38.733913 144.873739 144.873739 0 0 1-17.274435-24.486956A79.515826 79.515826 0 0 1 0 734.608696v-84.413218c0-69.587478 39.312696-133.164522 101.509565-164.285217l4.452174-2.226087 11.174957-55.963826c-13.445565-33.925565-16.962783-72.303304-16.962783-110.502957 0-58.189913 8.503652-118.160696 46.302609-165.977043 38.64487-48.929391 99.728696-75.063652 181.915826-84.146087 80.495304-8.993391 151.017739 2.226087 196.563478 51.066435z m-323.049739 396.644174l-1.558261 7.70226v284.582957l4.363131 2.537739c17.586087 10.106435 43.453217 23.774609 75.686956 37.442783C345.35513 874.629565 434.532174 901.565217 534.26087 901.565217c99.728696 0 188.950261-26.935652 253.818434-54.494608a707.227826 707.227826 0 0 0 75.686957-37.442783l4.407652-2.537739v-284.582957l-1.558261-7.70226c-32.723478 13.979826-71.769043 19.456-115.311304 19.456-76.577391 0-137.572174-21.904696-180.98087-66.203827A215.173565 215.173565 0 0 1 534.26087 418.415304a215.173565 215.173565 0 0 1-36.062609 49.641739C454.700522 512.356174 393.750261 534.26087 317.217391 534.26087c-43.542261 0-82.587826-5.476174-115.311304-19.456z m249.811478-328.303305c-12.911304-13.801739-42.518261-27.603478-112.283826-19.856695-68.118261 7.568696-98.838261 26.980174-114.420869 46.747826-16.473043 20.836174-24.665043 52.669217-24.665044 103.824695 0 52.891826 8.637217 78.180174 20.569044 91.492174 10.863304 12.065391 34.726957 25.377391 96.300521 25.377392 56.987826 0 89.444174-15.760696 109.389913-36.151653 21.058783-21.504 35.172174-55.206957 41.271653-103.646608 7.791304-62.464-2.537739-93.184-16.161392-107.787131z m165.086609 0c-13.623652 14.60313-23.952696 45.32313-16.161391 107.787131 6.054957 48.484174 20.21287 82.142609 41.271652 103.646608 19.990261 20.390957 52.402087 36.151652 109.389913 36.151653 61.573565 0 85.481739-13.312 96.300522-25.377392 11.931826-13.356522 20.569043-38.600348 20.569043-91.492174 0-51.155478-8.192-82.988522-24.709565-103.869217-15.582609-19.72313-46.302609-39.17913-114.42087-46.747826-69.721043-7.702261-99.372522 6.099478-112.239304 19.901217z"
        p-id="14204"></path>
</svg>