<svg class="icon" viewBox="0 0 1024 1024" version="1.1" xmlns="http://www.w3.org/2000/svg" id="mx_n_1773399306383"
    width="256" height="256" xmlns:xlink="http://www.w3.org/1999/xlink">
    <path d="M0 0h1024v1024H0z" fill="#ffffff" opacity=".01" p-id="17126"></path>
    <path
        d="M512 34.112a477.888 477.888 0 0 1 154.368 930.304l0.576-0.64a77.312 77.312 0 0 0 27.904-94.72L526.912 476.8a19.328 19.328 0 0 0-35.584 0l-167.936 392.32a77.44 77.44 0 0 0 23.36 91.456l10.816 3.84A478.144 478.144 0 0 1 34.112 512 477.888 477.888 0 0 1 512 34.112zM312.96 214.016a358.4 358.4 0 0 0-54.4 551.424 51.2 51.2 0 1 0 72.448-72.448 256 256 0 1 1 361.984 0 51.2 51.2 0 1 0 72.448 72.448 358.4 358.4 0 0 0-452.48-551.424z"
        fill="#ffffff" fill-opacity=".8" p-id="17127"></path>
    <path
        d="M497.28 601.792a12.928 12.928 0 0 1 11.84-8.832c5.12 0 9.856 3.52 11.84 8.832l112 294.272c6.848 17.92 5.184 38.528-4.352 54.848a50.304 50.304 0 0 1-43.008 26.048H432.64a50.304 50.304 0 0 1-43.008-26.048A64.384 64.384 0 0 1 385.28 896l112-294.272z"
        fill="#ffffff" fill-opacity=".5" p-id="17128"></path>
</svg>